<svg xmlns="http://www.w3.org/2000/svg" viewBox="0 0 120 120" width="512" height="512">
  <!-- Option 3: Ghost/spirit house - rounded bottom, floaty -->
  
  <!-- Body - ghost shape (rounded top, wavy bottom) -->
  <path d="M30,55 Q30,30 60,22 Q90,30 90,55 L90,85 Q84,80 78,85 Q72,90 66,85 Q60,80 54,85 Q48,90 42,85 Q36,80 30,85 Z" fill="#D4764E"/>
  
  <!-- Roof hat -->
  <polygon points="60,8 38,30 82,30" fill="#B85E3A"/>
  
  <!-- Chimney -->
  <rect x="70" y="10" width="5" height="14" rx="1" fill="#B85E3A"/>
  
  <!-- Eyes (big and round) -->
  <circle cx="47" cy="52" r="7" fill="#1A1A1A"/>
  <circle cx="73" cy="52" r="7" fill="#1A1A1A"/>
  
  <!-- Eye shine -->
  <circle cx="44" cy="49" r="2.5" fill="#FFFFFF" opacity="0.85"/>
  <circle cx="70" cy="49" r="2.5" fill="#FFFFFF" opacity="0.85"/>
  
  <!-- Blush cheeks -->
  <ellipse cx="38" cy="62" rx="5" ry="3" fill="#B85E3A" opacity="0.3"/>
  <ellipse cx="82" cy="62" rx="5" ry="3" fill="#B85E3A" opacity="0.3"/>
</svg>