<svg xmlns="http://www.w3.org/2000/svg" viewBox="0 0 120 120" width="512" height="512">
  <!-- 5C: Warm coral/salmon with rosy cheeks -->
  <rect x="24" y="40" width="72" height="58" rx="8" fill="#E8846B"/>
  <polygon points="60,10 18,44 102,44" fill="#CC6B52"/>
  <rect x="80" y="16" width="8" height="20" rx="2" fill="#E8846B"/>
  <circle cx="84" cy="10" r="4" fill="#E8846B" opacity="0.5"/>
  <circle cx="90" cy="6" r="3" fill="#E8846B" opacity="0.3"/>
  <circle cx="46" cy="62" r="8" fill="#1A1A1A"/>
  <circle cx="74" cy="62" r="8" fill="#1A1A1A"/>
  <circle cx="43" cy="59" r="3" fill="#FFFFFF" opacity="0.85"/>
  <circle cx="71" cy="59" r="3" fill="#FFFFFF" opacity="0.85"/>
  <!-- Rosy cheeks -->
  <ellipse cx="36" cy="72" rx="6" ry="3.5" fill="#CC6B52" opacity="0.4"/>
  <ellipse cx="84" cy="72" rx="6" ry="3.5" fill="#CC6B52" opacity="0.4"/>
  <path d="M52 78 Q60 84 68 78" fill="none" stroke="#CC6B52" stroke-width="2" stroke-linecap="round"/>
  <rect x="53" y="82" width="14" height="16" rx="7" fill="#CC6B52" opacity="0.4"/>
  <ellipse cx="40" cy="100" rx="10" ry="6" fill="#E8846B"/>
  <ellipse cx="80" cy="100" rx="10" ry="6" fill="#E8846B"/>
</svg>