<svg xmlns="http://www.w3.org/2000/svg" viewBox="0 0 120 120" width="512" height="512">
  <!-- 5D: Dark/midnight with glowing teal eyes -->
  <rect x="24" y="40" width="72" height="58" rx="8" fill="#2D3748"/>
  <polygon points="60,10 18,44 102,44" fill="#1A202C"/>
  <rect x="80" y="16" width="8" height="20" rx="2" fill="#2D3748"/>
  <circle cx="84" cy="10" r="4" fill="#4A5568" opacity="0.5"/>
  <circle cx="90" cy="6" r="3" fill="#4A5568" opacity="0.3"/>
  <!-- Glowing eyes -->
  <circle cx="46" cy="62" r="9" fill="#4ecca3" opacity="0.15"/>
  <circle cx="74" cy="62" r="9" fill="#4ecca3" opacity="0.15"/>
  <circle cx="46" cy="62" r="7" fill="#4ecca3"/>
  <circle cx="74" cy="62" r="7" fill="#4ecca3"/>
  <circle cx="43" cy="59" r="2.5" fill="#FFFFFF" opacity="0.9"/>
  <circle cx="71" cy="59" r="2.5" fill="#FFFFFF" opacity="0.9"/>
  <path d="M52 78 Q60 84 68 78" fill="none" stroke="#4ecca3" stroke-width="2" stroke-linecap="round"/>
  <!-- Glowing door -->
  <rect x="53" y="82" width="14" height="16" rx="7" fill="#4ecca3" opacity="0.25"/>
  <ellipse cx="40" cy="100" rx="10" ry="6" fill="#2D3748"/>
  <ellipse cx="80" cy="100" rx="10" ry="6" fill="#2D3748"/>
</svg>