<svg xmlns="http://www.w3.org/2000/svg" viewBox="0 0 600 160" width="1200" height="320">
  <rect width="600" height="160" fill="#F5F5F5" rx="8"/>
  <style>
    text { font-family: -apple-system, 'Segoe UI', Roboto, sans-serif; }
  </style>
  <text x="300" y="14" text-anchor="middle" font-size="10" fill="#666" font-weight="600">RENNIE — Colour Variations</text>
    <g transform="translate(12, 10) scale(0.8)">
      <rect x="24" y="40" width="72" height="58" rx="8" fill="#D4764E"/>
      <polygon points="60,10 18,44 102,44" fill="#B85E3A"/>
      <rect x="80" y="16" width="8" height="20" rx="2" fill="#D4764E"/>
      <circle cx="84" cy="10" r="4" fill="#D4764E" opacity="0.5"/>
      <circle cx="90" cy="6" r="3" fill="#D4764E" opacity="0.3"/>
      <circle cx="46" cy="62" r="8" fill="#1A1A1A"/>
      <circle cx="74" cy="62" r="8" fill="#1A1A1A"/>
      <circle cx="43" cy="59" r="3" fill="#FFFFFF" opacity="0.85"/>
      <circle cx="71" cy="59" r="3" fill="#FFFFFF" opacity="0.85"/>
      
      <path d="M52 78 Q60 84 68 78" fill="none" stroke="#B85E3A" stroke-width="2" stroke-linecap="round"/>
      <rect x="53" y="82" width="14" height="16" rx="7" fill="#B85E3A" opacity="0.35"/>
      <ellipse cx="40" cy="100" rx="10" ry="6" fill="#D4764E"/>
      <ellipse cx="80" cy="100" rx="10" ry="6" fill="#D4764E"/>
    </g><text x="60" y="154" text-anchor="middle" font-size="9" fill="#666">Terracotta</text>
    <g transform="translate(132, 10) scale(0.8)">
      <rect x="24" y="40" width="72" height="58" rx="8" fill="#3CBF9F"/>
      <polygon points="60,10 18,44 102,44" fill="#2EA88A"/>
      <rect x="80" y="16" width="8" height="20" rx="2" fill="#3CBF9F"/>
      <circle cx="84" cy="10" r="4" fill="#3CBF9F" opacity="0.5"/>
      <circle cx="90" cy="6" r="3" fill="#3CBF9F" opacity="0.3"/>
      <circle cx="46" cy="62" r="8" fill="#1A1A1A"/>
      <circle cx="74" cy="62" r="8" fill="#1A1A1A"/>
      <circle cx="43" cy="59" r="3" fill="#FFFFFF" opacity="0.85"/>
      <circle cx="71" cy="59" r="3" fill="#FFFFFF" opacity="0.85"/>
      <ellipse cx="36" cy="72" rx="5" ry="3" fill="#2EA88A" opacity="0.35"/>
      <ellipse cx="84" cy="72" rx="5" ry="3" fill="#2EA88A" opacity="0.35"/>
      <path d="M52 78 Q60 84 68 78" fill="none" stroke="#2A8F76" stroke-width="2" stroke-linecap="round"/>
      <rect x="53" y="82" width="14" height="16" rx="7" fill="#2EA88A" opacity="0.35"/>
      <ellipse cx="40" cy="100" rx="10" ry="6" fill="#3CBF9F"/>
      <ellipse cx="80" cy="100" rx="10" ry="6" fill="#3CBF9F"/>
    </g><text x="180" y="154" text-anchor="middle" font-size="9" fill="#666">Teal</text>
    <g transform="translate(252, 10) scale(0.8)">
      <rect x="24" y="40" width="72" height="58" rx="8" fill="#E8846B"/>
      <polygon points="60,10 18,44 102,44" fill="#CC6B52"/>
      <rect x="80" y="16" width="8" height="20" rx="2" fill="#E8846B"/>
      <circle cx="84" cy="10" r="4" fill="#E8846B" opacity="0.5"/>
      <circle cx="90" cy="6" r="3" fill="#E8846B" opacity="0.3"/>
      <circle cx="46" cy="62" r="8" fill="#1A1A1A"/>
      <circle cx="74" cy="62" r="8" fill="#1A1A1A"/>
      <circle cx="43" cy="59" r="3" fill="#FFFFFF" opacity="0.85"/>
      <circle cx="71" cy="59" r="3" fill="#FFFFFF" opacity="0.85"/>
      <ellipse cx="36" cy="72" rx="5" ry="3" fill="#CC6B52" opacity="0.4"/>
      <ellipse cx="84" cy="72" rx="5" ry="3" fill="#CC6B52" opacity="0.4"/>
      <path d="M52 78 Q60 84 68 78" fill="none" stroke="#CC6B52" stroke-width="2" stroke-linecap="round"/>
      <rect x="53" y="82" width="14" height="16" rx="7" fill="#CC6B52" opacity="0.35"/>
      <ellipse cx="40" cy="100" rx="10" ry="6" fill="#E8846B"/>
      <ellipse cx="80" cy="100" rx="10" ry="6" fill="#E8846B"/>
    </g><text x="300" y="154" text-anchor="middle" font-size="9" fill="#666">Coral ★</text>
    <g transform="translate(372, 10) scale(0.8)">
      <rect x="24" y="40" width="72" height="58" rx="8" fill="#2D3748"/>
      <polygon points="60,10 18,44 102,44" fill="#1A202C"/>
      <rect x="80" y="16" width="8" height="20" rx="2" fill="#2D3748"/>
      <circle cx="84" cy="10" r="4" fill="#2D3748" opacity="0.5"/>
      <circle cx="90" cy="6" r="3" fill="#2D3748" opacity="0.3"/>
      <circle cx="46" cy="62" r="8" fill="#4ecca3"/>
      <circle cx="74" cy="62" r="8" fill="#4ecca3"/>
      <circle cx="43" cy="59" r="3" fill="#FFFFFF" opacity="0.85"/>
      <circle cx="71" cy="59" r="3" fill="#FFFFFF" opacity="0.85"/>
      
      <path d="M52 78 Q60 84 68 78" fill="none" stroke="#4ecca3" stroke-width="2" stroke-linecap="round"/>
      <rect x="53" y="82" width="14" height="16" rx="7" fill="#4ecca3" opacity="0.35"/>
      <ellipse cx="40" cy="100" rx="10" ry="6" fill="#2D3748"/>
      <ellipse cx="80" cy="100" rx="10" ry="6" fill="#2D3748"/>
    </g><text x="420" y="154" text-anchor="middle" font-size="9" fill="#666">Midnight</text>
    <g transform="translate(492, 10) scale(0.8)">
      <rect x="24" y="40" width="72" height="58" rx="8" fill="#F0C060"/>
      <polygon points="60,10 18,44 102,44" fill="#D4A040"/>
      <rect x="80" y="16" width="8" height="20" rx="2" fill="#F0C060"/>
      <circle cx="84" cy="10" r="4" fill="#F0C060" opacity="0.5"/>
      <circle cx="90" cy="6" r="3" fill="#F0C060" opacity="0.3"/>
      <circle cx="46" cy="62" r="8" fill="#1A1A1A"/>
      <circle cx="74" cy="62" r="8" fill="#1A1A1A"/>
      <circle cx="43" cy="59" r="3" fill="#FFFFFF" opacity="0.85"/>
      <circle cx="71" cy="59" r="3" fill="#FFFFFF" opacity="0.85"/>
      
      <path d="M52 78 Q60 84 68 78" fill="none" stroke="#B88830" stroke-width="2" stroke-linecap="round"/>
      <rect x="53" y="82" width="14" height="16" rx="7" fill="#D4A040" opacity="0.35"/>
      <ellipse cx="40" cy="100" rx="10" ry="6" fill="#F0C060"/>
      <ellipse cx="80" cy="100" rx="10" ry="6" fill="#F0C060"/>
    </g><text x="540" y="154" text-anchor="middle" font-size="9" fill="#666">Golden</text>
</svg>