<svg xmlns="http://www.w3.org/2000/svg" viewBox="0 0 120 120" width="512" height="512">
  <!-- 5B improved: Deeper teal, warmer feel, added cheeks like 5C -->
  <rect x="24" y="40" width="72" height="58" rx="8" fill="#3CBF9F"/>
  <polygon points="60,10 18,44 102,44" fill="#2EA88A"/>
  <rect x="80" y="16" width="8" height="20" rx="2" fill="#3CBF9F"/>
  <circle cx="84" cy="10" r="4" fill="#3CBF9F" opacity="0.5"/>
  <circle cx="90" cy="6" r="3" fill="#3CBF9F" opacity="0.3"/>
  <circle cx="46" cy="62" r="8" fill="#1A1A1A"/>
  <circle cx="74" cy="62" r="8" fill="#1A1A1A"/>
  <circle cx="43" cy="59" r="3" fill="#FFFFFF" opacity="0.85"/>
  <circle cx="71" cy="59" r="3" fill="#FFFFFF" opacity="0.85"/>
  <!-- Cheeks like 5C -->
  <ellipse cx="36" cy="72" rx="5" ry="3" fill="#2EA88A" opacity="0.35"/>
  <ellipse cx="84" cy="72" rx="5" ry="3" fill="#2EA88A" opacity="0.35"/>
  <path d="M52 78 Q60 84 68 78" fill="none" stroke="#2A8F76" stroke-width="2" stroke-linecap="round"/>
  <rect x="53" y="82" width="14" height="16" rx="7" fill="#2EA88A" opacity="0.35"/>
  <ellipse cx="40" cy="100" rx="10" ry="6" fill="#3CBF9F"/>
  <ellipse cx="80" cy="100" rx="10" ry="6" fill="#3CBF9F"/>
</svg>